<?xml version="1.0" encoding="utf-8"?>
<!-- Generator: Adobe Illustrator 22.0.1, SVG Export Plug-In . SVG Version: 6.00 Build 0)  -->
<svg version="1.1" id="Calque_1" xmlns="http://www.w3.org/2000/svg" xmlns:xlink="http://www.w3.org/1999/xlink" x="0px" y="0px"
	 viewBox="0 0 1000 1000" style="enable-background:new 0 0 1000 1000;" xml:space="preserve">
<g>
</g>
<path style="fill: #fff;" d="M500,27.8l471.7,471.7L500,971.3L28.3,499.6L500,27.8 M500-0.4L0,499.6l500,500l500-500L500-0.4L500-0.4z"/>
<g>
	<path style="fill: #fff;" d="M537,605.2c-1.3,3.4-1.9,6.2-2,8.3c-0.1,2.1,0.5,3.7,1.8,4.8c1.3,1.1,3.3,1.8,6.2,2.1c2.9,0.3,6.8,0.5,11.6,0.5
		c4.9,0,8.7-0.1,11.6-0.4c2.9-0.2,5.1-0.6,6.6-1.2c1.5-0.5,2.6-1.3,3.3-2.2s1.4-2.1,2-3.5l26.1-74h126.4l24.9,73
		c0.5,1.4,1.1,2.6,1.9,3.6c0.8,1,1.9,1.9,3.4,2.6c1.5,0.7,3.6,1.2,6.3,1.5c2.7,0.3,6.3,0.5,10.7,0.5c4.5,0,8.3-0.2,11.2-0.6
		c2.9-0.4,4.9-1.1,6.1-2.2c1.2-1.1,1.7-2.7,1.6-4.8c-0.1-2.1-0.7-4.9-2-8.3L692.7,322.7c-0.6-1.7-1.4-3.1-2.5-4.2
		c-1-1.1-2.5-2-4.5-2.6c-2-0.6-4.5-1.1-7.5-1.3s-6.9-0.4-11.6-0.4c-5,0-9.2,0.1-12.4,0.4c-3.3,0.2-5.9,0.7-8,1.3
		c-2,0.6-3.6,1.5-4.7,2.7c-1.1,1.2-2,2.6-2.6,4.3L537,605.2z M667.8,356h0.2l52.4,151.5H614.7L667.8,356z"/>
</g>
<g>
	<polygon style="fill: #fff;" points="332.2,356 331.9,356 279.6,507.5 385.3,507.5 	"/>
	<path style="fill: #fff;" d="M500,999.6V-0.4L0,499.6L500,999.6z M205.4,605l101.9-282.3c0.6-1.7,1.4-3.1,2.5-4.2c1-1.1,2.5-2,4.5-2.6
		c2-0.6,4.5-1.1,7.5-1.3s6.9-0.4,11.6-0.4c5,0,9.2,0.1,12.4,0.4c3.3,0.2,5.9,0.7,8,1.3c2,0.6,3.6,1.5,4.7,2.7c1.1,1.2,2,2.6,2.6,4.3
		L463,605.2c1.3,3.4,1.9,6.2,2,8.3c0.1,2.1-0.5,3.7-1.8,4.8c-1.3,1.1-3.3,1.8-6.2,2.1c-2.9,0.3-6.8,0.5-11.6,0.5
		c-4.9,0-8.7-0.1-11.6-0.4c-2.9-0.2-5.1-0.6-6.6-1.2c-1.5-0.5-2.6-1.3-3.3-2.2c-0.7-0.9-1.4-2.1-2-3.5l-26.1-74H269.5l-24.9,73
		c-0.5,1.4-1.1,2.6-1.9,3.6c-0.8,1-1.9,1.9-3.4,2.6c-1.5,0.7-3.6,1.2-6.3,1.5c-2.7,0.3-6.3,0.5-10.7,0.5c-4.5,0-8.3-0.2-11.2-0.6
		c-2.9-0.4-4.9-1.1-6.1-2.2c-1.2-1.1-1.7-2.7-1.6-4.8C203.4,611.2,204.1,608.4,205.4,605z"/>
</g>
</svg>
